<mxfile host="app.diagrams.net" modified="2022-01-13T15:45:56.097Z" agent="5.0 (Macintosh; Intel Mac OS X 10_15_7) AppleWebKit/537.36 (KHTML, like Gecko) Chrome/97.0.4692.71 Safari/537.36" etag="ZMJPFFfTpt7sgpOq8PDs" version="16.2.4" type="github">
  <diagram id="C5RBs43oDa-KdzZeNtuy" name="Page-1">
    <mxGraphModel dx="1106" dy="737" grid="1" gridSize="10" guides="1" tooltips="1" connect="1" arrows="1" fold="1" page="1" pageScale="1" pageWidth="827" pageHeight="1169" math="0" shadow="0">
      <root>
        <mxCell id="WIyWlLk6GJQsqaUBKTNV-0" />
        <mxCell id="WIyWlLk6GJQsqaUBKTNV-1" parent="WIyWlLk6GJQsqaUBKTNV-0" />
        <mxCell id="DPt0XY_yW_eSFdQzGn50-31" style="edgeStyle=orthogonalEdgeStyle;rounded=0;orthogonalLoop=1;jettySize=auto;html=1;fontSize=12;" edge="1" parent="WIyWlLk6GJQsqaUBKTNV-1" source="WIyWlLk6GJQsqaUBKTNV-3" target="DPt0XY_yW_eSFdQzGn50-23">
          <mxGeometry relative="1" as="geometry" />
        </mxCell>
        <mxCell id="WIyWlLk6GJQsqaUBKTNV-3" value="&lt;p style=&quot;font-family: &amp;#34;verdana&amp;#34; , &amp;#34;arial&amp;#34; , &amp;#34;helvetica&amp;#34; , sans-serif ; color: rgb(68 , 68 , 68) ; margin-top: 0px ; margin-bottom: 0px ; background-color: rgb(255 , 255 , 255)&quot;&gt;&lt;font style=&quot;font-size: 12px&quot;&gt;Deal both user and computer a starting hand of 2 random card values.&lt;/font&gt;&lt;/p&gt;&lt;div&gt;&lt;br&gt;&lt;/div&gt;" style="rounded=1;whiteSpace=wrap;html=1;fontSize=12;glass=0;strokeWidth=1;shadow=0;" parent="WIyWlLk6GJQsqaUBKTNV-1" vertex="1">
          <mxGeometry x="260" y="200" width="306" height="50" as="geometry" />
        </mxCell>
        <mxCell id="DPt0XY_yW_eSFdQzGn50-37" style="edgeStyle=orthogonalEdgeStyle;rounded=0;orthogonalLoop=1;jettySize=auto;html=1;entryX=0.5;entryY=0;entryDx=0;entryDy=0;fontSize=12;" edge="1" parent="WIyWlLk6GJQsqaUBKTNV-1" source="DPt0XY_yW_eSFdQzGn50-2" target="DPt0XY_yW_eSFdQzGn50-7">
          <mxGeometry relative="1" as="geometry" />
        </mxCell>
        <mxCell id="DPt0XY_yW_eSFdQzGn50-39" style="edgeStyle=orthogonalEdgeStyle;rounded=0;orthogonalLoop=1;jettySize=auto;html=1;entryX=0.5;entryY=0;entryDx=0;entryDy=0;fontSize=12;" edge="1" parent="WIyWlLk6GJQsqaUBKTNV-1" source="DPt0XY_yW_eSFdQzGn50-2" target="DPt0XY_yW_eSFdQzGn50-3">
          <mxGeometry relative="1" as="geometry" />
        </mxCell>
        <mxCell id="DPt0XY_yW_eSFdQzGn50-40" style="edgeStyle=orthogonalEdgeStyle;rounded=0;orthogonalLoop=1;jettySize=auto;html=1;fontSize=12;" edge="1" parent="WIyWlLk6GJQsqaUBKTNV-1" source="DPt0XY_yW_eSFdQzGn50-2">
          <mxGeometry relative="1" as="geometry">
            <mxPoint x="414" y="420" as="targetPoint" />
          </mxGeometry>
        </mxCell>
        <mxCell id="DPt0XY_yW_eSFdQzGn50-47" style="edgeStyle=orthogonalEdgeStyle;rounded=0;orthogonalLoop=1;jettySize=auto;html=1;fontSize=12;" edge="1" parent="WIyWlLk6GJQsqaUBKTNV-1" source="DPt0XY_yW_eSFdQzGn50-2">
          <mxGeometry relative="1" as="geometry">
            <mxPoint x="50" y="360" as="targetPoint" />
          </mxGeometry>
        </mxCell>
        <mxCell id="DPt0XY_yW_eSFdQzGn50-61" style="edgeStyle=orthogonalEdgeStyle;rounded=0;orthogonalLoop=1;jettySize=auto;html=1;fontSize=12;" edge="1" parent="WIyWlLk6GJQsqaUBKTNV-1" source="DPt0XY_yW_eSFdQzGn50-2" target="DPt0XY_yW_eSFdQzGn50-22">
          <mxGeometry relative="1" as="geometry" />
        </mxCell>
        <mxCell id="DPt0XY_yW_eSFdQzGn50-2" value="&lt;span style=&quot;color: rgb(68 , 68 , 68) ; font-family: &amp;#34;verdana&amp;#34; , &amp;#34;arial&amp;#34; , &amp;#34;helvetica&amp;#34; , sans-serif ; background-color: rgb(255 , 255 , 255)&quot;&gt;&lt;font style=&quot;font-size: 12px&quot;&gt;Detect when computer or user has a blackjack. (Ace + 10 value card).&lt;/font&gt;&lt;/span&gt;" style="rounded=0;whiteSpace=wrap;html=1;fontSize=12;" vertex="1" parent="WIyWlLk6GJQsqaUBKTNV-1">
          <mxGeometry x="260.5" y="400" width="307" height="60" as="geometry" />
        </mxCell>
        <mxCell id="DPt0XY_yW_eSFdQzGn50-3" value="&lt;span style=&quot;color: rgb(68 , 68 , 68) ; font-family: &amp;#34;verdana&amp;#34; , &amp;#34;arial&amp;#34; , &amp;#34;helvetica&amp;#34; , sans-serif ; background-color: rgb(255 , 255 , 255)&quot;&gt;&lt;font style=&quot;font-size: 12px&quot;&gt;If computer gets blackjack, then the user loses (even if the user also has a blackjack)&lt;/font&gt;&lt;/span&gt;" style="rounded=0;whiteSpace=wrap;html=1;fontSize=12;shadow=0;" vertex="1" parent="WIyWlLk6GJQsqaUBKTNV-1">
          <mxGeometry x="84" y="540" width="196" height="70" as="geometry" />
        </mxCell>
        <mxCell id="DPt0XY_yW_eSFdQzGn50-7" value="&lt;span style=&quot;color: rgb(68 , 68 , 68) ; font-family: &amp;#34;verdana&amp;#34; , &amp;#34;arial&amp;#34; , &amp;#34;helvetica&amp;#34; , sans-serif ; background-color: rgb(255 , 255 , 255)&quot;&gt;If the user gets a blackjack, then they win (unless the computer also has a blackjack).&lt;/span&gt;" style="rounded=0;whiteSpace=wrap;html=1;fontSize=12;" vertex="1" parent="WIyWlLk6GJQsqaUBKTNV-1">
          <mxGeometry x="550" y="530" width="200" height="70" as="geometry" />
        </mxCell>
        <mxCell id="DPt0XY_yW_eSFdQzGn50-12" value="&lt;p style=&quot;font-family: &amp;#34;verdana&amp;#34; , &amp;#34;arial&amp;#34; , &amp;#34;helvetica&amp;#34; , sans-serif ; color: rgb(68 , 68 , 68) ; margin-top: 0px ; margin-bottom: 0px ; font-size: 18px ; font-style: normal ; font-weight: 400 ; letter-spacing: normal ; text-indent: 0px ; text-transform: none ; word-spacing: 0px ; background-color: rgb(255 , 255 , 255)&quot;&gt;&lt;/p&gt;" style="text;whiteSpace=wrap;html=1;fontSize=12;" vertex="1" parent="WIyWlLk6GJQsqaUBKTNV-1">
          <mxGeometry x="310" y="220" width="550" height="60" as="geometry" />
        </mxCell>
        <mxCell id="DPt0XY_yW_eSFdQzGn50-21" value="&lt;p style=&quot;font-family: &amp;#34;verdana&amp;#34; , &amp;#34;arial&amp;#34; , &amp;#34;helvetica&amp;#34; , sans-serif ; color: rgb(68 , 68 , 68) ; margin-top: 0px ; margin-bottom: 0px ; font-size: 18px ; font-style: normal ; font-weight: 400 ; letter-spacing: normal ; text-indent: 0px ; text-transform: none ; word-spacing: 0px ; background-color: rgb(255 , 255 , 255)&quot;&gt;&lt;/p&gt;" style="text;whiteSpace=wrap;html=1;fontSize=12;" vertex="1" parent="WIyWlLk6GJQsqaUBKTNV-1">
          <mxGeometry x="10" y="40" width="440" height="40" as="geometry" />
        </mxCell>
        <mxCell id="DPt0XY_yW_eSFdQzGn50-41" style="edgeStyle=orthogonalEdgeStyle;rounded=0;orthogonalLoop=1;jettySize=auto;html=1;fontSize=12;" edge="1" parent="WIyWlLk6GJQsqaUBKTNV-1" source="DPt0XY_yW_eSFdQzGn50-22" target="DPt0XY_yW_eSFdQzGn50-44">
          <mxGeometry relative="1" as="geometry">
            <mxPoint x="310" y="590" as="targetPoint" />
            <Array as="points">
              <mxPoint x="414" y="540" />
              <mxPoint x="310" y="540" />
            </Array>
          </mxGeometry>
        </mxCell>
        <mxCell id="DPt0XY_yW_eSFdQzGn50-42" style="edgeStyle=orthogonalEdgeStyle;rounded=0;orthogonalLoop=1;jettySize=auto;html=1;fontSize=12;entryX=0.5;entryY=0;entryDx=0;entryDy=0;" edge="1" parent="WIyWlLk6GJQsqaUBKTNV-1" source="DPt0XY_yW_eSFdQzGn50-22" target="DPt0XY_yW_eSFdQzGn50-43">
          <mxGeometry relative="1" as="geometry">
            <mxPoint x="510" y="590" as="targetPoint" />
          </mxGeometry>
        </mxCell>
        <mxCell id="DPt0XY_yW_eSFdQzGn50-22" value="&lt;p style=&quot;font-family: &amp;#34;verdana&amp;#34; , &amp;#34;arial&amp;#34; , &amp;#34;helvetica&amp;#34; , sans-serif ; color: rgb(68 , 68 , 68) ; margin-top: 0px ; margin-bottom: 0px ; background-color: rgb(255 , 255 , 255)&quot;&gt;&lt;font style=&quot;font-size: 12px&quot;&gt;Ask the user if they want to get another card.&lt;/font&gt;&lt;/p&gt;&lt;div&gt;&lt;br&gt;&lt;/div&gt;" style="rounded=0;whiteSpace=wrap;html=1;shadow=0;fontSize=12;" vertex="1" parent="WIyWlLk6GJQsqaUBKTNV-1">
          <mxGeometry x="298" y="515" width="230" height="70" as="geometry" />
        </mxCell>
        <mxCell id="DPt0XY_yW_eSFdQzGn50-32" style="edgeStyle=orthogonalEdgeStyle;rounded=0;orthogonalLoop=1;jettySize=auto;html=1;entryX=0.182;entryY=0.833;entryDx=0;entryDy=0;entryPerimeter=0;fontSize=12;" edge="1" parent="WIyWlLk6GJQsqaUBKTNV-1" source="DPt0XY_yW_eSFdQzGn50-23" target="DPt0XY_yW_eSFdQzGn50-12">
          <mxGeometry relative="1" as="geometry" />
        </mxCell>
        <mxCell id="DPt0XY_yW_eSFdQzGn50-60" style="edgeStyle=orthogonalEdgeStyle;rounded=0;orthogonalLoop=1;jettySize=auto;html=1;entryX=0.5;entryY=0;entryDx=0;entryDy=0;fontSize=12;" edge="1" parent="WIyWlLk6GJQsqaUBKTNV-1" source="DPt0XY_yW_eSFdQzGn50-23" target="DPt0XY_yW_eSFdQzGn50-2">
          <mxGeometry relative="1" as="geometry" />
        </mxCell>
        <mxCell id="DPt0XY_yW_eSFdQzGn50-23" value="&lt;p style=&quot;font-family: &amp;#34;verdana&amp;#34; , &amp;#34;arial&amp;#34; , &amp;#34;helvetica&amp;#34; , sans-serif ; color: rgb(68 , 68 , 68) ; margin-top: 0px ; margin-bottom: 0px ; background-color: rgb(255 , 255 , 255)&quot;&gt;&lt;font style=&quot;font-size: 12px&quot;&gt;Reveal computer&#39;s first card to the user.&lt;/font&gt;&lt;/p&gt;&lt;div&gt;&lt;br&gt;&lt;/div&gt;" style="rounded=0;whiteSpace=wrap;html=1;shadow=0;fontSize=12;" vertex="1" parent="WIyWlLk6GJQsqaUBKTNV-1">
          <mxGeometry x="354" y="300" width="120" height="60" as="geometry" />
        </mxCell>
        <mxCell id="DPt0XY_yW_eSFdQzGn50-57" style="edgeStyle=orthogonalEdgeStyle;rounded=0;orthogonalLoop=1;jettySize=auto;html=1;fontSize=12;startArrow=none;" edge="1" parent="WIyWlLk6GJQsqaUBKTNV-1" source="DPt0XY_yW_eSFdQzGn50-28">
          <mxGeometry relative="1" as="geometry">
            <mxPoint x="920" y="890" as="targetPoint" />
            <Array as="points">
              <mxPoint x="870" y="935" />
              <mxPoint x="870" y="890" />
            </Array>
          </mxGeometry>
        </mxCell>
        <mxCell id="DPt0XY_yW_eSFdQzGn50-25" value="&lt;p style=&quot;font-family: &amp;#34;verdana&amp;#34; , &amp;#34;arial&amp;#34; , &amp;#34;helvetica&amp;#34; , sans-serif ; color: rgb(68 , 68 , 68) ; margin-top: 0px ; margin-bottom: 0px ; background-color: rgb(255 , 255 , 255)&quot;&gt;&lt;font style=&quot;font-size: 12px&quot;&gt;Compare user and computer scores and see if it&#39;s a win, loss, or draw.&lt;/font&gt;&lt;/p&gt;&lt;div&gt;&lt;br&gt;&lt;/div&gt;" style="rounded=0;whiteSpace=wrap;html=1;shadow=0;fontSize=12;" vertex="1" parent="WIyWlLk6GJQsqaUBKTNV-1">
          <mxGeometry x="280" y="900" width="210" height="70" as="geometry" />
        </mxCell>
        <mxCell id="DPt0XY_yW_eSFdQzGn50-26" value="&lt;p style=&quot;font-family: &amp;#34;verdana&amp;#34; , &amp;#34;arial&amp;#34; , &amp;#34;helvetica&amp;#34; , sans-serif ; color: rgb(68 , 68 , 68) ; margin-top: 0px ; margin-bottom: 0px ; background-color: rgb(255 , 255 , 255)&quot;&gt;&lt;font style=&quot;font-size: 12px&quot;&gt;Print out the player&#39;s and computer&#39;s final hand and their scores at the end of the game.&lt;/font&gt;&lt;/p&gt;&lt;div&gt;&lt;br&gt;&lt;/div&gt;" style="rounded=0;whiteSpace=wrap;html=1;shadow=0;fontSize=12;" vertex="1" parent="WIyWlLk6GJQsqaUBKTNV-1">
          <mxGeometry x="680" y="990" width="270" height="70" as="geometry" />
        </mxCell>
        <mxCell id="DPt0XY_yW_eSFdQzGn50-50" value="" style="edgeStyle=orthogonalEdgeStyle;rounded=0;orthogonalLoop=1;jettySize=auto;html=1;fontSize=12;" edge="1" parent="WIyWlLk6GJQsqaUBKTNV-1" source="DPt0XY_yW_eSFdQzGn50-43" target="DPt0XY_yW_eSFdQzGn50-48">
          <mxGeometry relative="1" as="geometry" />
        </mxCell>
        <mxCell id="DPt0XY_yW_eSFdQzGn50-43" value="If no,&lt;br&gt;" style="rounded=0;whiteSpace=wrap;html=1;shadow=0;fontSize=12;" vertex="1" parent="WIyWlLk6GJQsqaUBKTNV-1">
          <mxGeometry x="450" y="630" width="120" height="60" as="geometry" />
        </mxCell>
        <mxCell id="DPt0XY_yW_eSFdQzGn50-45" style="edgeStyle=orthogonalEdgeStyle;rounded=0;orthogonalLoop=1;jettySize=auto;html=1;fontSize=12;" edge="1" parent="WIyWlLk6GJQsqaUBKTNV-1" source="DPt0XY_yW_eSFdQzGn50-44">
          <mxGeometry relative="1" as="geometry">
            <mxPoint x="50" y="350" as="targetPoint" />
          </mxGeometry>
        </mxCell>
        <mxCell id="DPt0XY_yW_eSFdQzGn50-54" style="edgeStyle=orthogonalEdgeStyle;rounded=0;orthogonalLoop=1;jettySize=auto;html=1;fontSize=12;" edge="1" parent="WIyWlLk6GJQsqaUBKTNV-1" source="DPt0XY_yW_eSFdQzGn50-44" target="DPt0XY_yW_eSFdQzGn50-25">
          <mxGeometry relative="1" as="geometry" />
        </mxCell>
        <mxCell id="DPt0XY_yW_eSFdQzGn50-55" style="edgeStyle=orthogonalEdgeStyle;rounded=0;orthogonalLoop=1;jettySize=auto;html=1;entryX=0;entryY=0.5;entryDx=0;entryDy=0;fontSize=12;" edge="1" parent="WIyWlLk6GJQsqaUBKTNV-1" source="DPt0XY_yW_eSFdQzGn50-44" target="DPt0XY_yW_eSFdQzGn50-48">
          <mxGeometry relative="1" as="geometry" />
        </mxCell>
        <mxCell id="DPt0XY_yW_eSFdQzGn50-44" value="If yes, give another card,&amp;nbsp;&lt;span style=&quot;background-color: rgb(255 , 255 , 255) ; color: rgb(68 , 68 , 68) ; font-family: &amp;#34;verdana&amp;#34; , &amp;#34;arial&amp;#34; , &amp;#34;helvetica&amp;#34; , sans-serif&quot;&gt;If an ace is drawn, count it as 11. But if the total goes over 21, count the ace as 1 instead.&lt;/span&gt;&lt;div&gt;&lt;br&gt;&lt;/div&gt;" style="rounded=0;whiteSpace=wrap;html=1;shadow=0;fontSize=12;" vertex="1" parent="WIyWlLk6GJQsqaUBKTNV-1">
          <mxGeometry x="160" y="690" width="180" height="110" as="geometry" />
        </mxCell>
        <mxCell id="DPt0XY_yW_eSFdQzGn50-53" style="edgeStyle=orthogonalEdgeStyle;rounded=0;orthogonalLoop=1;jettySize=auto;html=1;fontSize=12;" edge="1" parent="WIyWlLk6GJQsqaUBKTNV-1" source="DPt0XY_yW_eSFdQzGn50-48" target="DPt0XY_yW_eSFdQzGn50-25">
          <mxGeometry relative="1" as="geometry" />
        </mxCell>
        <mxCell id="DPt0XY_yW_eSFdQzGn50-48" value="Let the computer play (unless score &amp;gt; 16)" style="rounded=0;whiteSpace=wrap;html=1;shadow=0;fontSize=12;" vertex="1" parent="WIyWlLk6GJQsqaUBKTNV-1">
          <mxGeometry x="440" y="740" width="120" height="60" as="geometry" />
        </mxCell>
        <mxCell id="DPt0XY_yW_eSFdQzGn50-56" style="edgeStyle=orthogonalEdgeStyle;rounded=0;orthogonalLoop=1;jettySize=auto;html=1;fontSize=12;" edge="1" parent="WIyWlLk6GJQsqaUBKTNV-1" source="DPt0XY_yW_eSFdQzGn50-17" target="DPt0XY_yW_eSFdQzGn50-28">
          <mxGeometry relative="1" as="geometry" />
        </mxCell>
        <mxCell id="DPt0XY_yW_eSFdQzGn50-17" value="&lt;p style=&quot;font-family: &amp;#34;verdana&amp;#34; , &amp;#34;arial&amp;#34; , &amp;#34;helvetica&amp;#34; , sans-serif ; color: rgb(68 , 68 , 68) ; margin-top: 0px ; margin-bottom: 0px ; background-color: rgb(255 , 255 , 255)&quot;&gt;&lt;font style=&quot;font-size: 12px&quot;&gt;Game ends immediately when user score goes over 21 or if the user or computer gets a blackjack.&lt;/font&gt;&lt;/p&gt;&lt;div&gt;&lt;br&gt;&lt;/div&gt;" style="rounded=0;whiteSpace=wrap;html=1;shadow=0;fontSize=12;" vertex="1" parent="WIyWlLk6GJQsqaUBKTNV-1">
          <mxGeometry x="270" y="810" width="230" height="60" as="geometry" />
        </mxCell>
        <mxCell id="DPt0XY_yW_eSFdQzGn50-59" style="edgeStyle=orthogonalEdgeStyle;rounded=0;orthogonalLoop=1;jettySize=auto;html=1;entryX=0.455;entryY=-0.033;entryDx=0;entryDy=0;entryPerimeter=0;fontSize=12;" edge="1" parent="WIyWlLk6GJQsqaUBKTNV-1" source="DPt0XY_yW_eSFdQzGn50-28" target="DPt0XY_yW_eSFdQzGn50-26">
          <mxGeometry relative="1" as="geometry" />
        </mxCell>
        <mxCell id="DPt0XY_yW_eSFdQzGn50-28" value="&lt;p style=&quot;font-family: &amp;#34;verdana&amp;#34; , &amp;#34;arial&amp;#34; , &amp;#34;helvetica&amp;#34; , sans-serif ; color: rgb(68 , 68 , 68) ; margin-top: 0px ; margin-bottom: 0px ; background-color: rgb(255 , 255 , 255)&quot;&gt;&lt;font style=&quot;font-size: 12px&quot;&gt;After the game ends, ask the user if they&#39;d like to play again. Clear the console for a fresh start.&lt;/font&gt;&lt;/p&gt;&lt;div&gt;&lt;br&gt;&lt;/div&gt;" style="rounded=0;whiteSpace=wrap;html=1;shadow=0;fontSize=12;" vertex="1" parent="WIyWlLk6GJQsqaUBKTNV-1">
          <mxGeometry x="670" y="860" width="270" height="70" as="geometry" />
        </mxCell>
        <mxCell id="DPt0XY_yW_eSFdQzGn50-58" value="" style="edgeStyle=orthogonalEdgeStyle;rounded=0;orthogonalLoop=1;jettySize=auto;html=1;fontSize=12;endArrow=none;" edge="1" parent="WIyWlLk6GJQsqaUBKTNV-1" source="DPt0XY_yW_eSFdQzGn50-25" target="DPt0XY_yW_eSFdQzGn50-28">
          <mxGeometry relative="1" as="geometry">
            <mxPoint x="920" y="890" as="targetPoint" />
            <mxPoint x="490" y="935" as="sourcePoint" />
            <Array as="points" />
          </mxGeometry>
        </mxCell>
      </root>
    </mxGraphModel>
  </diagram>
</mxfile>
